<?xml version="1.0" encoding="UTF-8"?>
<svg version="1.1" xmlns="http://www.w3.org/2000/svg" width="512" height="512">
<path d="M0 0 C8.77642831 6.32138053 15.45677074 14.73708128 17.58203125 25.4921875 C18.00027232 31.15838886 17.82135284 36.8215953 17.58203125 42.4921875 C18.16694336 42.47124023 18.75185547 42.45029297 19.35449219 42.42871094 C22.0134959 42.34538635 24.6722248 42.29347853 27.33203125 42.2421875 C28.25242187 42.20867187 29.1728125 42.17515625 30.12109375 42.140625 C36.94673218 42.0417027 36.94673218 42.0417027 40.16015625 44.3203125 C42.20481816 47.44347739 42.72518523 50.13939597 42.96803284 53.7853241 C43.02830658 54.66137299 43.08858032 55.53742188 43.15068054 56.4400177 C43.21254044 57.39849106 43.27440033 58.35696442 43.33813477 59.34448242 C43.4407663 60.86205139 43.4407663 60.86205139 43.54547119 62.41027832 C43.77122914 65.7641539 43.99120462 69.11838095 44.2109375 72.47265625 C44.36617863 74.80334756 44.52169487 77.13402056 44.67747498 79.4646759 C45.00355611 84.35625226 45.32688715 89.24800031 45.64819336 94.13989258 C46.05950892 100.40012757 46.47666605 106.659956 46.89578342 112.91967297 C47.21780518 117.73660492 47.53717043 122.55371009 47.85569572 127.3708744 C48.00848775 129.67812089 48.16199091 131.9853204 48.31622505 134.29247093 C48.5318788 137.52578745 48.74406721 140.75931341 48.95532227 143.99291992 C49.05114845 145.41544823 49.05114845 145.41544823 49.14891052 146.86671448 C49.48596196 152.08873718 49.64333002 157.25924993 49.58203125 162.4921875 C50.22460876 162.48330505 50.86718628 162.47442261 51.52923584 162.465271 C58.212434 162.37683102 64.89546615 162.31646696 71.57910156 162.27246094 C74.0739619 162.25233586 76.56877503 162.22503298 79.06347656 162.19042969 C82.64790493 162.14195293 86.2317101 162.1192273 89.81640625 162.1015625 C90.93319763 162.08091736 92.04998901 162.06027222 93.20062256 162.03900146 C94.24139954 162.03869934 95.28217651 162.03839722 96.35449219 162.03808594 C97.26938416 162.02920349 98.18427612 162.02032104 99.12689209 162.01116943 C102.39962083 162.65237205 103.57408662 163.8721952 105.58203125 166.4921875 C106.08996582 168.46484375 106.08996582 168.46484375 106.09960938 170.5546875 C106.11221802 171.34230469 106.12482666 172.12992188 106.13781738 172.94140625 C106.125672 174.20404297 106.125672 174.20404297 106.11328125 175.4921875 C106.11710815 176.36488281 106.12093506 177.23757812 106.12487793 178.13671875 C106.12759615 179.97917842 106.12024119 181.82167674 106.10351562 183.6640625 C106.08210373 186.48264684 106.10331926 189.29868235 106.12890625 192.1171875 C106.12626296 193.90885979 106.12113794 195.70053049 106.11328125 197.4921875 C106.12137817 198.33394531 106.1294751 199.17570313 106.13781738 200.04296875 C106.11890442 201.22439453 106.11890442 201.22439453 106.09960938 202.4296875 C106.096427 203.11933594 106.09324463 203.80898437 106.08996582 204.51953125 C105.58203125 206.4921875 105.58203125 206.4921875 101.58203125 210.4921875 C97.62203125 210.4921875 93.66203125 210.4921875 89.58203125 210.4921875 C89.58203125 255.3721875 89.58203125 300.2521875 89.58203125 346.4921875 C104.10203125 346.4921875 118.62203125 346.4921875 133.58203125 346.4921875 C138.08317555 350.9933318 138.08317555 350.9933318 138.09960938 354.5546875 C138.11852234 355.73611328 138.11852234 355.73611328 138.13781738 356.94140625 C138.125672 358.20404297 138.125672 358.20404297 138.11328125 359.4921875 C138.11710815 360.36488281 138.12093506 361.23757813 138.12487793 362.13671875 C138.12759615 363.97917842 138.12024119 365.82167674 138.10351562 367.6640625 C138.08210373 370.48264684 138.10331926 373.29868235 138.12890625 376.1171875 C138.12626296 377.90885979 138.12113794 379.70053049 138.11328125 381.4921875 C138.12137817 382.33394531 138.1294751 383.17570312 138.13781738 384.04296875 C138.11890442 385.22439453 138.11890442 385.22439453 138.09960938 386.4296875 C138.096427 387.11933594 138.09324463 387.80898438 138.08996582 388.51953125 C137.33643045 391.44602287 135.93834416 392.65472584 133.58203125 394.4921875 C131.20281982 395.01116943 131.20281982 395.01116943 128.53808594 395.03808594 C127.53735046 395.05780457 126.53661499 395.07752319 125.5055542 395.09783936 C123.89598846 395.09968231 123.89598846 395.09968231 122.25390625 395.1015625 C121.14976379 395.11809875 120.04562134 395.13463501 118.90802002 395.15167236 C115.38263436 395.20024376 111.85768036 395.2215444 108.33203125 395.2421875 C105.94138443 395.2703394 103.55075779 395.30026572 101.16015625 395.33203125 C95.30085985 395.40600519 89.44168531 395.45759415 83.58203125 395.4921875 C83.93136719 396.16765625 84.28070313 396.843125 84.640625 397.5390625 C85.09566406 398.43109375 85.55070312 399.323125 86.01953125 400.2421875 C86.47199219 401.12390625 86.92445313 402.005625 87.390625 402.9140625 C91.41156368 411.61511014 91.01646919 424.53825882 88.01953125 433.5546875 C83.39974363 444.10266413 75.19250788 452.30989988 64.64453125 456.9296875 C54.4945434 460.22736288 41.77456205 460.10723545 31.96875 455.8125 C21.85089084 450.21538642 13.86354543 441.91183064 10.2421875 430.78125 C8.10929738 420.15466136 8.28206321 409.12497614 13.58203125 399.4921875 C14.24203125 398.1721875 14.90203125 396.8521875 15.58203125 395.4921875 C-30.61796875 395.4921875 -76.81796875 395.4921875 -124.41796875 395.4921875 C-122.76796875 398.7921875 -121.11796875 402.0921875 -119.41796875 405.4921875 C-116.77306641 416.07179685 -117.07646828 428.83639819 -122.41796875 438.4921875 C-128.03819763 447.50493795 -135.94435541 454.52185743 -146.1328125 457.83203125 C-158.1117281 460.2392093 -170.32918447 459.53624361 -180.8359375 452.984375 C-189.63743963 446.6449346 -196.25726222 438.2573644 -198.41796875 427.4921875 C-199.47442726 417.61187311 -199.29912716 408.36378197 -194.41796875 399.4921875 C-193.74823872 398.16039025 -193.08116276 396.82725152 -192.41796875 395.4921875 C-193.79526154 395.48671906 -193.79526154 395.48671906 -195.20037842 395.48114014 C-203.85244222 395.44327757 -212.5041284 395.3864447 -221.15592575 395.30828476 C-225.60396554 395.26877099 -230.05180621 395.2366018 -234.5 395.22119141 C-238.792594 395.20605028 -243.08464072 395.17165067 -247.37699127 395.12387848 C-249.01479588 395.10903828 -250.65267861 395.10114497 -252.29055023 395.10030365 C-254.58459354 395.09794004 -256.87711688 395.07091272 -259.17089844 395.03808594 C-261.12947784 395.02476227 -261.12947784 395.02476227 -263.12762451 395.01116943 C-266.41796875 394.4921875 -266.41796875 394.4921875 -268.59355164 393.12570953 C-271.48637258 388.94996067 -270.9550606 384.79927188 -270.89898682 379.83685303 C-270.90240452 378.7390433 -270.90582222 377.64123356 -270.90934348 376.51015687 C-270.91595045 372.81868304 -270.89389878 369.12793068 -270.87207031 365.43652344 C-270.87094244 362.7955562 -270.87139822 360.15463364 -270.87384033 357.51367188 C-270.87593844 351.82129143 -270.86338128 346.12909429 -270.84088898 340.43675995 C-270.80839011 332.20661736 -270.79796414 323.97656347 -270.79293701 315.74636367 C-270.78418103 302.39368438 -270.75755725 289.0411028 -270.71972656 275.68847656 C-270.68301431 262.71712737 -270.65469871 249.74580471 -270.63769531 236.77441406 C-270.63611897 235.57521818 -270.63611897 235.57521818 -270.63451079 234.35179612 C-270.62929066 230.34114773 -270.62423582 226.33049915 -270.61926317 222.31985044 C-270.57779169 189.04389166 -270.50733505 155.76805265 -270.41796875 122.4921875 C-271.08924805 122.50106995 -271.76052734 122.50995239 -272.45214844 122.519104 C-279.46036231 122.60783245 -286.4684157 122.66802781 -293.47705078 122.71191406 C-296.09007248 122.73198683 -298.7030495 122.75925108 -301.31591797 122.79394531 C-305.07921397 122.84265185 -308.84191424 122.86520061 -312.60546875 122.8828125 C-313.76723633 122.90345764 -314.92900391 122.92410278 -316.12597656 122.94537354 C-324.08667258 122.94755894 -329.50528343 121.92089955 -335.66015625 116.52734375 C-336.19898438 115.87636719 -336.7378125 115.22539062 -337.29296875 114.5546875 C-337.84726562 113.90628906 -338.4015625 113.25789063 -338.97265625 112.58984375 C-343.45208972 106.08861193 -343.09260603 99.12077833 -342.41796875 91.4921875 C-340.73711292 84.83259417 -335.95418553 80.30671303 -330.41796875 76.4921875 C-325.66233079 73.98240736 -321.0689639 74.19638857 -315.82592773 74.20166016 C-314.38606506 74.19158432 -314.38606506 74.19158432 -312.91711426 74.18130493 C-309.74937749 74.162332 -306.58185252 74.15840159 -303.4140625 74.15625 C-301.21118584 74.14982344 -299.00831004 74.14309519 -296.80543518 74.13607788 C-292.19131489 74.12410821 -287.57726948 74.12039693 -282.96313477 74.12158203 C-277.04570093 74.12178562 -271.12874518 74.09444011 -265.21142483 74.06003761 C-260.66386195 74.03782588 -256.11641537 74.03374267 -251.56880379 74.03480148 C-249.38667205 74.03243855 -247.20453743 74.02357631 -245.02245903 74.00813675 C-241.9748339 73.98858552 -238.92825649 73.99427138 -235.88061523 74.00634766 C-234.97712845 73.99510864 -234.07364166 73.98386963 -233.14277649 73.97229004 C-232.31150238 73.98067902 -231.48022827 73.98906799 -230.62376404 73.99771118 C-229.90388526 73.99662165 -229.18400648 73.99553211 -228.44231319 73.99440956 C-225.23804189 74.78232664 -224.27256947 75.72681379 -222.41796875 78.4921875 C-221.82275635 82.04087633 -221.89637824 85.55694094 -221.93695068 89.14752197 C-221.93353298 90.2453317 -221.93011528 91.34314144 -221.92659402 92.47421813 C-221.91998705 96.16569196 -221.94203872 99.85644432 -221.96386719 103.54785156 C-221.96499506 106.1888188 -221.96453928 108.82974136 -221.96209717 111.47070312 C-221.95999906 117.16308357 -221.97255622 122.85528071 -221.99504852 128.54761505 C-222.02754739 136.77775764 -222.03797336 145.00781153 -222.04300049 153.23801133 C-222.05175647 166.59069062 -222.07838025 179.9432722 -222.11621094 193.29589844 C-222.15292319 206.26724763 -222.18123879 219.23857029 -222.19824219 232.20996094 C-222.19981853 233.40915682 -222.19981853 233.40915682 -222.20142671 234.63257888 C-222.20664684 238.64322727 -222.21170168 242.65387585 -222.21667433 246.66452456 C-222.25814581 279.94048628 -222.32970278 313.21631688 -222.41796875 346.4921875 C-214.49796875 346.4921875 -206.57796875 346.4921875 -198.41796875 346.4921875 C-198.4268512 344.84736389 -198.43573364 343.20254028 -198.44488525 341.50787354 C-198.52587533 326.02776341 -198.58612835 310.54771891 -198.62521744 295.06744766 C-198.64584875 287.10835515 -198.67398003 279.14942073 -198.71972656 271.19042969 C-198.75957713 264.25391592 -198.78539743 257.31751662 -198.79432273 250.38089156 C-198.79954057 246.70744008 -198.81181565 243.03431612 -198.84088898 239.36096954 C-198.87307095 235.26165699 -198.87392932 231.16291499 -198.87207031 227.06347656 C-198.88645142 225.84356018 -198.90083252 224.6236438 -198.91564941 223.36676025 C-198.91015076 222.25059326 -198.9046521 221.13442627 -198.89898682 219.98443604 C-198.90267399 219.01470982 -198.90636116 218.0449836 -198.91016006 217.04587173 C-198.26287921 213.6875213 -197.14423194 212.51321128 -194.41796875 210.4921875 C-192.12792969 210.03808594 -192.12792969 210.03808594 -189.65234375 210.1015625 C-188.76289063 210.11445313 -187.8734375 210.12734375 -186.95703125 210.140625 C-185.57644531 210.19089844 -185.57644531 210.19089844 -184.16796875 210.2421875 C-183.23210937 210.26023438 -182.29625 210.27828125 -181.33203125 210.296875 C-179.0262986 210.34393077 -176.7226593 210.40965037 -174.41796875 210.4921875 C-174.4268512 209.34848694 -174.43573364 208.20478638 -174.44488525 207.02642822 C-174.52592266 196.25551168 -174.58591093 185.48465687 -174.62521744 174.71350479 C-174.64610461 169.17573607 -174.67444318 163.63821317 -174.71972656 158.10058594 C-174.76314355 152.75784637 -174.78709734 147.41534345 -174.79747772 142.0724411 C-174.80487652 140.0326337 -174.81932443 137.99283946 -174.84088898 135.95313263 C-174.86986762 133.09900277 -174.87392705 130.24585453 -174.87207031 127.39160156 C-174.88645142 126.54571472 -174.90083252 125.69982788 -174.91564941 124.82830811 C-174.89017542 121.21659968 -174.78283522 119.08848258 -172.87121582 115.96435547 C-169.50681027 113.9454108 -166.52039818 113.96247066 -162.71191406 114.03808594 C-161.55523979 114.03720978 -161.55523979 114.03720978 -160.37519836 114.03631592 C-157.83170222 114.03909803 -155.28938461 114.07019459 -152.74609375 114.1015625 C-150.98061768 114.10902447 -149.21513332 114.11471761 -147.449646 114.11871338 C-142.80683454 114.13397322 -138.16452501 114.1732579 -133.52191162 114.2175293 C-128.78290598 114.25847453 -124.0438191 114.27672279 -119.3046875 114.296875 C-110.00889427 114.33975193 -100.71347328 114.40800742 -91.41796875 114.4921875 C-91.15014495 109.81550491 -90.88248999 105.13881269 -90.61497498 100.46211243 C-90.52442206 98.87944798 -90.43382724 97.29678594 -90.34318542 95.71412659 C-89.63783987 83.39763265 -88.933694 71.08101113 -88.26913452 58.76223755 C-87.66469659 48.15478162 -87.66469659 48.15478162 -84.41796875 43.4921875 C-82.01737058 42.29188842 -80.52436226 42.37759007 -77.84765625 42.39453125 C-76.95175781 42.39775391 -76.05585938 42.40097656 -75.1328125 42.40429688 C-73.72708984 42.41686523 -73.72708984 42.41686523 -72.29296875 42.4296875 C-71.34808594 42.43419922 -70.40320313 42.43871094 -69.4296875 42.44335938 C-67.09238488 42.45516393 -64.75520814 42.47162991 -62.41796875 42.4921875 C-62.464375 41.39261719 -62.51078125 40.29304688 -62.55859375 39.16015625 C-62.92609819 26.82989322 -61.61709159 17.32206472 -53.390625 7.55859375 C-39.45028894 -7.04425333 -17.51265688 -10.92065518 0 0 Z M-41.0703125 19.35546875 C-46.09572818 26.62411345 -46.41796875 33.83006792 -46.41796875 42.4921875 C-30.57796875 42.4921875 -14.73796875 42.4921875 1.58203125 42.4921875 C1.58203125 33.0095444 1.10317956 24.84582283 -5.41796875 17.4921875 C-11.64777978 11.94801032 -17.76449837 10.51938805 -26.0078125 10.9140625 C-32.25882355 11.97379862 -36.86917801 14.61801922 -41.0703125 19.35546875 Z M-70.41796875 58.4921875 C-72.18640079 77.13597632 -73.35246592 95.79792324 -74.41796875 114.4921875 C-73.82328293 114.49805374 -73.22859711 114.50391998 -72.6158905 114.50996399 C-66.4352612 114.57381872 -60.25515645 114.65821743 -54.07495117 114.75463867 C-51.76740426 114.78792606 -49.45977518 114.81594599 -47.15209961 114.83862305 C-43.83802213 114.87209858 -40.5247003 114.92441148 -37.2109375 114.98046875 C-36.17647995 114.98685867 -35.1420224 114.9932486 -34.07621765 114.99983215 C-32.6350634 115.02952339 -32.6350634 115.02952339 -31.16479492 115.05981445 C-29.89571541 115.07646904 -29.89571541 115.07646904 -28.60099792 115.09346008 C-25.88632013 115.58929242 -25.00017928 116.24594775 -23.41796875 118.4921875 C-23.01924133 120.52336121 -23.01924133 120.52336121 -22.9855957 122.87182617 C-22.96565552 123.76478394 -22.94571533 124.6577417 -22.9251709 125.57775879 C-22.918927 126.51244995 -22.91268311 127.44714111 -22.90625 128.41015625 C-22.88961304 129.27209595 -22.87297607 130.13403564 -22.85583496 131.02209473 C-22.79801291 134.24104425 -22.76577759 137.46041232 -22.73046875 140.6796875 C-22.57578125 151.476875 -22.57578125 151.476875 -22.41796875 162.4921875 C-4.26796875 162.4921875 13.88203125 162.4921875 32.58203125 162.4921875 C31.42849241 140.57494956 30.10703675 118.67372171 28.65409851 96.77461243 C28.51982041 94.74655483 28.3864461 92.71843955 28.2532959 90.69030762 C27.99961721 86.83762906 27.74256344 82.98519118 27.484375 79.1328125 C27.4083757 77.97575806 27.3323764 76.81870361 27.2540741 75.62658691 C26.86458041 69.88257412 26.37022403 64.19563204 25.58203125 58.4921875 C22.94203125 58.4921875 20.30203125 58.4921875 17.58203125 58.4921875 C17.58203125 63.7721875 17.58203125 69.0521875 17.58203125 74.4921875 C12.30203125 74.4921875 7.02203125 74.4921875 1.58203125 74.4921875 C1.58203125 69.2121875 1.58203125 63.9321875 1.58203125 58.4921875 C-14.25796875 58.4921875 -30.09796875 58.4921875 -46.41796875 58.4921875 C-46.41796875 63.7721875 -46.41796875 69.0521875 -46.41796875 74.4921875 C-51.69796875 74.4921875 -56.97796875 74.4921875 -62.41796875 74.4921875 C-62.41796875 69.2121875 -62.41796875 63.9321875 -62.41796875 58.4921875 C-65.05796875 58.4921875 -67.69796875 58.4921875 -70.41796875 58.4921875 Z M-324.41796875 93.4921875 C-325.83838696 96.33302391 -325.73249147 98.34696028 -325.41796875 101.4921875 C-323.18590444 104.33999369 -321.86803876 105.34216416 -318.41796875 106.4921875 C-315.84720346 106.58316975 -313.3041584 106.61824788 -310.73364258 106.60571289 C-309.95291885 106.60585892 -309.17219513 106.60600494 -308.36781311 106.6061554 C-305.78684716 106.60545864 -303.20595335 106.59767732 -300.625 106.58984375 C-298.83566833 106.58797873 -297.04633615 106.58655522 -295.25700378 106.58555603 C-290.54699291 106.58173749 -285.83701286 106.57191283 -281.12701416 106.56085205 C-276.32100847 106.55062371 -271.51499781 106.54605536 -266.70898438 106.54101562 C-257.27863011 106.53028999 -247.84830682 106.51269852 -238.41796875 106.4921875 C-238.41796875 101.2121875 -238.41796875 95.9321875 -238.41796875 90.4921875 C-248.74504112 90.42436065 -259.0719651 90.36934189 -269.39920998 90.33675098 C-274.19477247 90.32110753 -278.99017442 90.29989334 -283.78564453 90.26586914 C-288.41516062 90.23322865 -293.04452245 90.21532455 -297.67414474 90.20755577 C-299.43875938 90.20202069 -301.20336576 90.19121196 -302.96791458 90.17499733 C-305.44314953 90.15316055 -307.91775034 90.15022316 -310.39306641 90.15161133 C-311.48279755 90.13543259 -311.48279755 90.13543259 -312.59454346 90.118927 C-317.26103406 90.14717052 -320.46074396 91.01409437 -324.41796875 93.4921875 Z M-254.41796875 122.4921875 C-254.41796875 196.4121875 -254.41796875 270.3321875 -254.41796875 346.4921875 C-249.13796875 346.4921875 -243.85796875 346.4921875 -238.41796875 346.4921875 C-238.41796875 272.5721875 -238.41796875 198.6521875 -238.41796875 122.4921875 C-243.69796875 122.4921875 -248.97796875 122.4921875 -254.41796875 122.4921875 Z M-158.41796875 130.4921875 C-158.41796875 135.7721875 -158.41796875 141.0521875 -158.41796875 146.4921875 C-118.81796875 146.4921875 -79.21796875 146.4921875 -38.41796875 146.4921875 C-38.41796875 141.2121875 -38.41796875 135.9321875 -38.41796875 130.4921875 C-78.01796875 130.4921875 -117.61796875 130.4921875 -158.41796875 130.4921875 Z M-158.41796875 162.4921875 C-158.41796875 178.3321875 -158.41796875 194.1721875 -158.41796875 210.4921875 C-118.81796875 210.4921875 -79.21796875 210.4921875 -38.41796875 210.4921875 C-38.41796875 194.6521875 -38.41796875 178.8121875 -38.41796875 162.4921875 C-78.01796875 162.4921875 -117.61796875 162.4921875 -158.41796875 162.4921875 Z M-22.41796875 178.4921875 C-22.41796875 183.7721875 -22.41796875 189.0521875 -22.41796875 194.4921875 C14.54203125 194.4921875 51.50203125 194.4921875 89.58203125 194.4921875 C89.58203125 189.2121875 89.58203125 183.9321875 89.58203125 178.4921875 C52.62203125 178.4921875 15.66203125 178.4921875 -22.41796875 178.4921875 Z M-22.41796875 210.4921875 C-22.41796875 255.3721875 -22.41796875 300.2521875 -22.41796875 346.4921875 C9.26203125 346.4921875 40.94203125 346.4921875 73.58203125 346.4921875 C73.58203125 301.6121875 73.58203125 256.7321875 73.58203125 210.4921875 C41.90203125 210.4921875 10.22203125 210.4921875 -22.41796875 210.4921875 Z M-182.41796875 226.4921875 C-182.41796875 266.0921875 -182.41796875 305.6921875 -182.41796875 346.4921875 C-134.89796875 346.4921875 -87.37796875 346.4921875 -38.41796875 346.4921875 C-38.41796875 306.8921875 -38.41796875 267.2921875 -38.41796875 226.4921875 C-51.61796875 226.4921875 -64.81796875 226.4921875 -78.41796875 226.4921875 C-78.45535156 230.21113281 -78.49273437 233.93007813 -78.53125 237.76171875 C-78.57743561 241.35593617 -78.62868016 244.95004821 -78.68041992 248.54418945 C-78.71371346 251.04575215 -78.74173143 253.54739077 -78.7644043 256.04907227 C-78.79786835 259.64111752 -78.85018118 263.23246416 -78.90625 266.82421875 C-78.91263992 267.94617142 -78.91902985 269.06812408 -78.9256134 270.22407532 C-78.94540756 271.26492783 -78.96520172 272.30578033 -78.9855957 273.37817383 C-78.99669876 274.29528641 -79.00780182 275.21239899 -79.01924133 276.15730286 C-79.49744764 278.95760331 -80.12433961 279.85072011 -82.41796875 281.4921875 C-88.86924621 282.50346883 -92.05858436 280.9065402 -97.27539062 277.17773438 C-98.04431641 276.60087891 -98.81324219 276.02402344 -99.60546875 275.4296875 C-101.15148017 274.27943458 -102.70719057 273.14207464 -104.2734375 272.01953125 C-104.95043701 271.51156006 -105.62743652 271.00358887 -106.32495117 270.48022461 C-109.13086899 269.15565335 -110.50296483 269.5373119 -113.41796875 270.4921875 C-115.45263821 271.58575056 -115.45263821 271.58575056 -117.34375 272.99609375 C-118.41592773 273.73569336 -118.41592773 273.73569336 -119.50976562 274.49023438 C-120.98426409 275.52899715 -122.45310583 276.57583864 -123.91601562 277.63085938 C-129.00698913 281.11463765 -132.22736312 282.3879343 -138.41796875 281.4921875 C-140.71476569 279.85363768 -141.33844461 278.95786829 -141.81669617 276.15730286 C-141.83335075 274.78163399 -141.83335075 274.78163399 -141.8503418 273.37817383 C-141.87013596 272.33732132 -141.88993011 271.29646881 -141.9103241 270.22407532 C-141.91671402 269.10212265 -141.92310394 267.98016998 -141.9296875 266.82421875 C-141.9476387 265.67426926 -141.9655899 264.52431976 -141.98408508 263.33952332 C-142.03833136 259.66128218 -142.07213046 255.98317186 -142.10546875 252.3046875 C-142.13862909 249.81313278 -142.17311753 247.32159535 -142.20898438 244.83007812 C-142.29656984 238.71742757 -142.35651897 232.60538069 -142.41796875 226.4921875 C-155.61796875 226.4921875 -168.81796875 226.4921875 -182.41796875 226.4921875 Z M-126.41796875 226.4921875 C-126.41796875 237.0521875 -126.41796875 247.6121875 -126.41796875 258.4921875 C-120.32047394 255.1520832 -120.32047394 255.1520832 -114.41796875 251.4921875 C-107.24571818 250.33950437 -103.48905469 252.90645529 -97.640625 256.9609375 C-95.7305634 258.58674201 -95.7305634 258.58674201 -94.41796875 258.4921875 C-94.41796875 247.9321875 -94.41796875 237.3721875 -94.41796875 226.4921875 C-104.97796875 226.4921875 -115.53796875 226.4921875 -126.41796875 226.4921875 Z M-254.41796875 362.4921875 C-254.41796875 367.7721875 -254.41796875 373.0521875 -254.41796875 378.4921875 C-130.33796875 378.4921875 -6.25796875 378.4921875 121.58203125 378.4921875 C121.58203125 373.2121875 121.58203125 367.9321875 121.58203125 362.4921875 C-2.49796875 362.4921875 -126.57796875 362.4921875 -254.41796875 362.4921875 Z M-177.97265625 405.39453125 C-182.0977477 411.38148831 -182.13405017 417.44153962 -181.41796875 424.4921875 C-179.64454442 431.13691664 -174.97130405 435.66586709 -169.41796875 439.4921875 C-163.41909871 442.43281007 -156.53513345 442.59102538 -150.10546875 440.875 C-143.97664014 438.16969675 -139.17844083 433.08355055 -136.24609375 427.1015625 C-134.33991018 421.09528598 -134.35358188 413.98927192 -136.91796875 408.1796875 C-140.40259013 402.23971013 -145.85252705 397.57583067 -152.41796875 395.4921875 C-163.85241972 394.13582504 -170.59614364 396.76572696 -177.97265625 405.39453125 Z M30.02734375 405.39453125 C25.9022523 411.38148831 25.86594983 417.44153962 26.58203125 424.4921875 C28.35545558 431.13691664 33.02869595 435.66586709 38.58203125 439.4921875 C44.58090129 442.43281007 51.46486655 442.59102538 57.89453125 440.875 C64.02335986 438.16969675 68.82155917 433.08355055 71.75390625 427.1015625 C73.66008982 421.09528598 73.64641812 413.98927192 71.08203125 408.1796875 C67.59740987 402.23971013 62.14747295 397.57583067 55.58203125 395.4921875 C44.14758028 394.13582504 37.40385636 396.76572696 30.02734375 405.39453125 Z " fill="#09090b" transform="translate(358.41796875,37.5078125)"/>
<path d="M0 0 C1.26811523 -0.01260864 2.53623047 -0.02521729 3.84277344 -0.03820801 C5.22331295 -0.03104817 6.60384739 -0.02284418 7.984375 -0.01367188 C9.40397406 -0.0163675 10.82357131 -0.02025051 12.24316406 -0.02526855 C15.21567394 -0.03116045 18.18770241 -0.02261142 21.16015625 -0.00390625 C24.96696287 0.01888413 28.77264149 0.00575925 32.57940674 -0.01819611 C35.51001456 -0.03266301 38.44035574 -0.02804423 41.37097168 -0.01768494 C42.77437474 -0.01502007 44.17780215 -0.01827905 45.58117676 -0.02760315 C47.54369635 -0.03778128 49.50630102 -0.01951228 51.46875 0 C52.58475586 0.00318237 53.70076172 0.00636475 54.85058594 0.00964355 C58.40152676 0.63508653 59.5847534 1.66714246 61.734375 4.51757812 C62.25195312 7.84570312 62.25195312 7.84570312 62.265625 11.76757812 C62.27136536 12.81026855 62.27136536 12.81026855 62.27722168 13.87402344 C62.2799368 15.33985853 62.27260335 16.8057424 62.25585938 18.27148438 C62.23443919 20.51086787 62.25566943 22.74704399 62.28125 24.98632812 C62.27860665 26.41341851 62.2734815 27.84050691 62.265625 29.26757812 C62.26111328 30.56179688 62.25660156 31.85601562 62.25195312 33.18945312 C61.6336984 37.16494763 60.87388162 38.0898901 57.734375 40.51757812 C54.85058594 41.0255127 54.85058594 41.0255127 51.46875 41.03515625 C50.20063477 41.04776489 48.93251953 41.06037354 47.62597656 41.07336426 C46.24543705 41.06620442 44.86490261 41.05800043 43.484375 41.04882812 C42.06477594 41.05152375 40.64517869 41.05540676 39.22558594 41.0604248 C36.25307606 41.0663167 33.28104759 41.05776767 30.30859375 41.0390625 C26.50178713 41.01627212 22.69610851 41.029397 18.88934326 41.05335236 C15.95873544 41.06781926 13.02839426 41.06320048 10.09777832 41.05284119 C8.69437526 41.05017632 7.29094785 41.0534353 5.88757324 41.0627594 C3.92505365 41.07293753 1.96244898 41.05466853 0 41.03515625 C-1.11600586 41.03197388 -2.23201172 41.0287915 -3.38183594 41.0255127 C-6.93277676 40.40006972 -8.1160034 39.36801379 -10.265625 36.51757812 C-10.78320312 33.18945312 -10.78320312 33.18945312 -10.796875 29.26757812 C-10.8007019 28.57245117 -10.80452881 27.87732422 -10.80847168 27.16113281 C-10.8111868 25.69529772 -10.80385335 24.22941385 -10.78710938 22.76367188 C-10.76568919 20.52428838 -10.78691943 18.28811226 -10.8125 16.04882812 C-10.80985665 14.62173774 -10.8047315 13.19464934 -10.796875 11.76757812 C-10.79236328 10.47335937 -10.78785156 9.17914063 -10.78320312 7.84570312 C-9.77068552 1.33502391 -6.15572935 0.01755352 0 0 Z M5.734375 16.51757812 C5.734375 19.15757812 5.734375 21.79757812 5.734375 24.51757812 C18.934375 24.51757812 32.134375 24.51757812 45.734375 24.51757812 C45.734375 21.87757813 45.734375 19.23757813 45.734375 16.51757812 C32.534375 16.51757812 19.334375 16.51757812 5.734375 16.51757812 Z " fill="#09090b" transform="translate(362.265625,327.482421875)"/>
<path d="M0 0 C4.8846525 2.26787438 7.73212562 5.1153475 10 10 C10.75381535 15.5997712 10.77303575 20.33499991 8.375 25.5 C3.80134327 30.3143755 0.6912538 32.25156236 -6 32.5 C-12.6912538 32.25156236 -15.80134327 30.3143755 -20.375 25.5 C-22.77303575 20.33499991 -22.75381535 15.5997712 -22 10 C-17.52212837 0.3553534 -9.85292056 -1.32635469 0 0 Z " fill="#09090b" transform="translate(414,440)"/>
<path d="M0 0 C4.8846525 2.26787438 7.73212562 5.1153475 10 10 C10.75381535 15.5997712 10.77303575 20.33499991 8.375 25.5 C3.80134327 30.3143755 0.6912538 32.25156236 -6 32.5 C-12.6912538 32.25156236 -15.80134327 30.3143755 -20.375 25.5 C-22.77303575 20.33499991 -22.75381535 15.5997712 -22 10 C-17.52212837 0.3553534 -9.85292056 -1.32635469 0 0 Z " fill="#09090b" transform="translate(206,440)"/>
</svg>
