<?xml version="1.0" encoding="UTF-8"?>
<svg version="1.1" xmlns="http://www.w3.org/2000/svg" width="512" height="512">
<path d="M0 0 C1.28310059 -0.01393799 2.56620117 -0.02787598 3.88818359 -0.04223633 C19.73088091 0.03631407 34.61188666 3.2815045 47.125 13.375 C52.75950546 19.52462839 56.73709377 26.64572284 60.6875 33.9375 C61.90812275 36.15736936 63.1308364 38.37609009 64.35546875 40.59375 C64.97599121 41.7178125 65.59651367 42.841875 66.23583984 44 C69.23793474 49.36326698 72.37256416 54.64670916 75.5 59.9375 C79.50268257 66.74194974 83.40260114 73.56427458 86.9375 80.625 C87.25702637 81.26252197 87.57655273 81.90004395 87.90576172 82.55688477 C93.47234894 93.97169264 91.88353324 106.6706145 87.85693359 118.43212891 C77.9982416 144.60139872 58.76260159 165.73898757 39.375 185.25 C38.77333008 185.85642334 38.17166016 186.46284668 37.55175781 187.08764648 C-22.38009566 246.79831898 -109.32755071 293.40901315 -191.875 310.375 C-193.10428223 310.63966064 -193.10428223 310.63966064 -194.35839844 310.90966797 C-205.70898139 313.28674107 -217.06486508 313.6972881 -228.625 313.8125 C-229.65669312 313.83095978 -229.65669312 313.83095978 -230.70922852 313.84979248 C-244.67464294 314.05884807 -258.85693438 312.01692216 -270.875 304.375 C-271.88046875 303.74271484 -271.88046875 303.74271484 -272.90625 303.09765625 C-279.69697126 298.01808896 -283.32814204 290.32716844 -287.36474609 283.06982422 C-289.64103396 279.00812595 -291.98353405 274.9853402 -294.3190918 270.95751953 C-296.8923704 266.51634456 -299.4502186 262.0663585 -302.00878906 257.61669922 C-303.80095091 254.50362687 -305.59909511 251.3940822 -307.3984375 248.28515625 C-308.47415934 246.41938671 -309.54969072 244.55350734 -310.625 242.6875 C-311.11403809 241.84541992 -311.60307617 241.00333984 -312.10693359 240.13574219 C-319.88348832 226.60051224 -321.7882918 214.94547521 -317.85400391 199.59179688 C-312.0375277 179.12479789 -298.15915754 161.05791185 -283.94921875 145.6328125 C-282.08479587 143.60336537 -280.28725446 141.53465844 -278.5 139.4375 C-271.55952566 131.48252478 -263.91431226 124.20424276 -255.875 117.375 C-254.88242188 116.50488281 -253.88984375 115.63476562 -252.8671875 114.73828125 C-192.35985064 61.84731424 -114.77160808 19.77650061 -35.875 3.375 C-35.09721191 3.20983887 -34.31942383 3.04467773 -33.51806641 2.87451172 C-22.39413003 0.60177847 -11.33039946 0.07265465 0 0 Z M-118.875 47.375 C-119.77331543 47.7771875 -120.67163086 48.179375 -121.59716797 48.59375 C-159.07250212 65.5072015 -194.75372935 87.76344624 -226.875 113.375 C-227.86113281 114.16003906 -228.84726563 114.94507813 -229.86328125 115.75390625 C-232.55775415 117.93366074 -235.21855259 120.14912005 -237.875 122.375 C-239.38126953 123.60283203 -239.38126953 123.60283203 -240.91796875 124.85546875 C-248.55851154 131.1613691 -255.66337611 137.95407779 -262.6875 144.9375 C-263.55874512 145.79956055 -264.42999023 146.66162109 -265.32763672 147.54980469 C-271.26430383 153.514704 -276.66611772 159.76806825 -281.875 166.375 C-282.40472412 167.04007568 -282.93444824 167.70515137 -283.48022461 168.39038086 C-293.88962218 181.61970949 -306.16350053 199.72765704 -305.1953125 217.31640625 C-304.04418397 224.71451275 -301.12087342 229.06716838 -295.1953125 233.68359375 C-285.42492549 240.51475645 -273.84975925 240.87873433 -262.3125 240.75 C-261.32597443 240.74302094 -261.32597443 240.74302094 -260.31951904 240.73590088 C-249.24826915 240.64445278 -238.67914653 239.79581859 -227.875 237.375 C-226.56813232 237.09293701 -226.56813232 237.09293701 -225.23486328 236.80517578 C-189.32223183 228.91456614 -155.67716047 214.72788345 -122.875 198.375 C-122.03952637 197.95927734 -121.20405273 197.54355469 -120.34326172 197.11523438 C-84.64933921 179.20598646 -51.10488736 156.44221571 -20.875 130.375 C-20.15828125 129.76011719 -19.4415625 129.14523437 -18.703125 128.51171875 C5.97351868 107.14908714 38.77468944 77.62696576 43.04296875 43.05859375 C43.25279017 36.19443587 41.59599536 30.66959977 37.125 25.375 C23.90490902 13.14416753 5.84684686 14.72439028 -10.98876953 15.20019531 C-48.20752367 16.87431442 -85.35025467 32.32414005 -118.875 47.375 Z M55.125 56.375 C54.88007813 57.03242188 54.63515625 57.68984375 54.3828125 58.3671875 C48.47214933 73.40880619 40.41821361 86.95270799 30.125 99.375 C29.38894531 100.3134375 28.65289062 101.251875 27.89453125 102.21875 C21.48046113 110.17094134 14.32275301 117.38937567 7.125 124.625 C6.61652527 125.13874176 6.10805054 125.65248352 5.58416748 126.18179321 C-1.23210907 133.05253303 -8.28892358 139.3458844 -15.875 145.375 C-17.71109142 146.93425805 -19.54504964 148.49603933 -21.375 150.0625 C-78.91870643 198.01558869 -152.12094254 236.40773064 -225.875 251.375 C-226.69548828 251.54999023 -227.51597656 251.72498047 -228.36132812 251.90527344 C-246.51222022 255.67737241 -267.55461186 256.28747196 -285.875 253.375 C-283.57095943 259.46390361 -280.34414712 265.00816298 -277.1875 270.6875 C-276.58744141 271.79029297 -275.98738281 272.89308594 -275.36914062 274.02929688 C-269.04959115 285.3990556 -263.31462476 292.74209043 -250.83203125 297.0859375 C-244.26410277 298.83907895 -231.02598626 301.45049313 -224.875 298.375 C-226.67734261 293.57166946 -229.11217686 289.25712033 -231.6328125 284.80078125 C-232.875 282.375 -232.875 282.375 -232.875 280.375 C-230.7578125 278.8671875 -230.7578125 278.8671875 -228 277.25 C-227.09507812 276.71117187 -226.19015625 276.17234375 -225.2578125 275.6171875 C-222.875 274.375 -222.875 274.375 -220.875 274.375 C-216.585 281.965 -212.295 289.555 -207.875 297.375 C-194.90770507 295.90144376 -182.45679006 292.77950977 -169.875 289.375 C-168.91013672 289.11444824 -167.94527344 288.85389648 -166.95117188 288.58544922 C-166.04431641 288.32908691 -165.13746094 288.07272461 -164.203125 287.80859375 C-163.39262695 287.58099365 -162.58212891 287.35339355 -161.74707031 287.11889648 C-159.67881207 286.53767498 -159.67881207 286.53767498 -158.875 284.375 C-159.6983977 282.44229973 -159.6983977 282.44229973 -161 280.34765625 C-161.45890625 279.55552734 -161.9178125 278.76339844 -162.390625 277.94726562 C-163.37849726 276.27698161 -164.3680757 274.6077055 -165.359375 272.93945312 C-165.81828125 272.14603516 -166.2771875 271.35261719 -166.75 270.53515625 C-167.18054688 269.80949463 -167.61109375 269.08383301 -168.0546875 268.33618164 C-168.875 266.375 -168.875 266.375 -167.875 263.375 C-165.87890625 261.98828125 -165.87890625 261.98828125 -163.4375 260.6875 C-162.63441406 260.25050781 -161.83132813 259.81351563 -161.00390625 259.36328125 C-158.875 258.375 -158.875 258.375 -156.875 258.375 C-156.45202637 259.16148926 -156.45202637 259.16148926 -156.02050781 259.96386719 C-154.72927559 262.35492047 -153.42727083 264.73994219 -152.125 267.125 C-151.6815625 267.95 -151.238125 268.775 -150.78125 269.625 C-148.52709162 273.73552411 -146.49963153 277.29236945 -142.875 280.375 C-128.72256969 274.69332294 -114.73632517 268.73437152 -100.875 262.375 C-100.875 258.3639361 -101.17265475 257.3541042 -103.0625 254.046875 C-103.51367188 253.24765625 -103.96484375 252.4484375 -104.4296875 251.625 C-104.90664063 250.8 -105.38359375 249.975 -105.875 249.125 C-106.35195313 248.28453125 -106.82890625 247.4440625 -107.3203125 246.578125 C-108.49767787 244.50596194 -109.68274305 242.43861921 -110.875 240.375 C-109.46031689 239.41374097 -108.0431636 238.45611675 -106.625 237.5 C-105.83609375 236.96632813 -105.0471875 236.43265625 -104.234375 235.8828125 C-102.15944308 234.55677985 -100.09885028 233.42571825 -97.875 232.375 C-97.6378125 233.02984375 -97.400625 233.6846875 -97.15625 234.359375 C-95.49281487 238.27453329 -93.46004249 241.92121846 -91.375 245.625 C-90.97152344 246.3571875 -90.56804687 247.089375 -90.15234375 247.84375 C-89.76175781 248.53984375 -89.37117187 249.2359375 -88.96875 249.953125 C-88.61490234 250.58637695 -88.26105469 251.21962891 -87.89648438 251.87207031 C-86.93640333 253.54777939 -86.93640333 253.54777939 -84.875 254.375 C-82.45562001 253.32776047 -82.45562001 253.32776047 -79.73828125 251.7265625 C-78.69212646 251.13697754 -77.64597168 250.54739258 -76.56811523 249.93994141 C-75.45251221 249.29976074 -74.33690918 248.65958008 -73.1875 248 C-72.06093994 247.3611084 -70.93437988 246.7222168 -69.77368164 246.06396484 C-61.39649875 241.29570092 -53.08697087 236.4223577 -44.875 231.375 C-45.45217378 227.66213583 -46.46898206 224.95758204 -48.37890625 221.73046875 C-48.87197266 220.88935547 -49.36503906 220.04824219 -49.87304688 219.18164062 C-50.38931641 218.31732422 -50.90558594 217.45300781 -51.4375 216.5625 C-51.95763672 215.67884766 -52.47777344 214.79519531 -53.01367188 213.88476562 C-54.2944395 211.71098572 -55.5816834 209.54132913 -56.875 207.375 C-55.97523438 207.08882812 -55.07546875 206.80265625 -54.1484375 206.5078125 C-51.4482433 205.57337775 -49.02913313 204.55817231 -46.5 203.25 C-45.46746094 202.72019531 -45.46746094 202.72019531 -44.4140625 202.1796875 C-43.90617188 201.91414062 -43.39828125 201.64859375 -42.875 201.375 C-42.64039063 202.03886719 -42.40578125 202.70273437 -42.1640625 203.38671875 C-40.51686027 207.20523301 -38.41882187 210.64622053 -36.25 214.1875 C-35.82976562 214.88037109 -35.40953125 215.57324219 -34.9765625 216.28710938 C-33.9460533 217.98510748 -32.91098319 219.68033614 -31.875 221.375 C-28.45743565 220.1212234 -25.67988596 218.70425959 -22.7578125 216.5390625 C-21.99251221 215.97461426 -21.22721191 215.41016602 -20.4387207 214.82861328 C-19.63394287 214.2251709 -18.82916504 213.62172852 -18 213 C-17.16879639 212.38237793 -16.33759277 211.76475586 -15.48120117 211.12841797 C-7.80136498 205.38926839 -0.30192653 199.4364378 7.125 193.375 C5.11676436 187.59266633 1.73933867 182.55525259 -1.41796875 177.34960938 C-1.86011719 176.61162109 -2.30226563 175.87363281 -2.7578125 175.11328125 C-3.16402832 174.44337158 -3.57024414 173.77346191 -3.98876953 173.08325195 C-4.875 171.375 -4.875 171.375 -4.875 169.375 C-0.915 167.395 3.045 165.415 7.125 163.375 C12.57 172.78 12.57 172.78 18.125 182.375 C22.01309557 180.43095221 24.52090638 178.26988585 27.51953125 175.24609375 C28.02997482 174.73756363 28.5404184 174.22903351 29.06632996 173.70509338 C30.14539493 172.62738705 31.2219477 171.54716024 32.29614258 170.46459961 C33.91472293 168.83542614 35.54353708 167.21705376 37.17382812 165.59960938 C46.09274304 157.20473022 46.09274304 157.20473022 53.125 147.375 C52.83713002 144.11597264 51.27053792 141.69023933 49.5859375 138.93359375 C49.08835937 138.10279297 48.59078125 137.27199219 48.078125 136.41601562 C47.02220816 134.6740142 45.96227804 132.93443938 44.8984375 131.19726562 C44.4034375 130.36775391 43.9084375 129.53824219 43.3984375 128.68359375 C42.93872559 127.92876709 42.47901367 127.17394043 42.00537109 126.39624023 C41.125 124.375 41.125 124.375 42.125 121.375 C44.0859375 119.953125 44.0859375 119.953125 46.5 118.625 C47.29148437 118.17640625 48.08296875 117.7278125 48.8984375 117.265625 C51.125 116.375 51.125 116.375 54.125 117.375 C55.58639603 119.69008283 56.90814076 121.96344343 58.1875 124.375 C60.37345351 129.10532423 60.37345351 129.10532423 64.125 132.375 C74.87798321 113.99863275 74.87798321 113.99863275 76.125 93.375 C73.9260462 87.77141603 71.08967313 82.60488875 68.125 77.375 C67.61130859 76.46073242 67.09761719 75.54646484 66.56835938 74.60449219 C63.13270908 68.5014242 59.6490895 62.42739419 56.125 56.375 C55.795 56.375 55.465 56.375 55.125 56.375 Z " fill="#000000" transform="translate(420.875,145.625)"/>
<path d="M0 0 C0.71104889 0.00620361 1.42209778 0.01240723 2.1546936 0.01879883 C83.841561 0.84590407 168.27128895 49.56777914 231.35864258 97.24169922 C232.89297136 98.37480289 234.47546603 99.44197735 236.0625 100.5 C234.65273295 103.53852705 232.97379772 106.0939595 230.9375 108.75 C230.12925781 109.80960938 230.12925781 109.80960938 229.3046875 110.890625 C228.68980469 111.68726563 228.68980469 111.68726563 228.0625 112.5 C224.97118481 111.8960183 222.98347317 110.93667774 220.47265625 109.05078125 C219.78228271 108.5398291 219.09190918 108.02887695 218.38061523 107.50244141 C217.63626221 106.94476074 216.89190918 106.38708008 216.125 105.8125 C156.73076489 62.21762724 80.44124481 18.97067602 5.0625 15.5 C4.17691406 15.45875 3.29132813 15.4175 2.37890625 15.375 C-10.16267617 15.08375861 -24.72772377 16.31946016 -34.9375 24.3125 C-40.02613334 29.24249489 -41.11148834 33.78678833 -41.375 40.6875 C-40.6656566 64.66876337 -22.10894884 86.24454116 -6.4296875 102.85546875 C-4.13529345 105.29011573 -1.93657581 107.78134707 0.25 110.3125 C3.23874411 113.68766759 6.37844082 116.66414069 9.8203125 119.5703125 C11.99605027 121.44281155 14.09410537 123.38428208 16.1875 125.34790039 C22.5806277 131.32376829 29.2732063 136.794282 36.22949219 142.09960938 C38.04848156 143.48929012 39.85638256 144.89252938 41.6640625 146.296875 C57.96479632 158.84807643 75.24525631 170.22082095 93.0625 180.5 C92.08586844 185.79111782 88.84773851 189.99621008 86.0625 194.5 C77.82015815 190.72026584 70.36590655 185.94018516 62.875 180.875 C61.66841615 180.06431147 60.46179146 179.25368371 59.25512695 178.44311523 C50.69575765 172.67660452 42.24811468 166.78820623 34.0625 160.5 C33.48290527 160.05640137 32.90331055 159.61280273 32.30615234 159.15576172 C9.57435758 141.69403203 -13.61361817 122.48065957 -30.9375 99.5 C-31.36724121 98.94135254 -31.79698242 98.38270508 -32.23974609 97.80712891 C-41.90305022 85.22558124 -49.72681085 72.58093685 -54.9375 57.5 C-59.92372968 65.66585441 -64.78025213 73.8914031 -69.4375 82.25 C-69.87046387 83.0239209 -70.30342773 83.7978418 -70.74951172 84.59521484 C-71.15186035 85.3217627 -71.55420898 86.04831055 -71.96875 86.796875 C-72.32517578 87.43979492 -72.68160156 88.08271484 -73.04882812 88.74511719 C-76.46614461 95.49337843 -75.38649825 102.71835227 -73.375 109.75 C-70.9683216 117.03954215 -67.54234488 123.74597884 -63.9375 130.5 C-63.2775 130.5 -62.6175 130.5 -61.9375 130.5 C-61.39480469 129.50097656 -60.85210937 128.50195312 -60.29296875 127.47265625 C-59.57079987 126.16900073 -58.84811681 124.86562995 -58.125 123.5625 C-57.76857422 122.90314453 -57.41214844 122.24378906 -57.04492188 121.56445312 C-54.27734375 116.61328125 -54.27734375 116.61328125 -50.9375 115.5 C-48.23828125 116.71484375 -48.23828125 116.71484375 -45.25 118.4375 C-44.25613281 119.00339844 -43.26226562 119.56929688 -42.23828125 120.15234375 C-41.47902344 120.59707031 -40.71976563 121.04179687 -39.9375 121.5 C-40.57461148 124.58168051 -41.62055015 126.96517258 -43.1875 129.6875 C-43.6309375 130.46867188 -44.074375 131.24984375 -44.53125 132.0546875 C-45.46875 133.68489583 -46.40625 135.31510417 -47.34375 136.9453125 C-47.7871875 137.72648438 -48.230625 138.50765625 -48.6875 139.3125 C-49.09484375 140.02019531 -49.5021875 140.72789062 -49.921875 141.45703125 C-50.95310919 143.53139849 -51.66302708 145.19647146 -51.9375 147.5 C-50.27698343 149.90025797 -48.64229661 151.91981324 -46.6875 154.0625 C-45.8361145 155.01987061 -45.8361145 155.01987061 -44.9675293 155.99658203 C-32.74758634 170.90857813 -32.74758634 170.90857813 -17.9375 182.5 C-17.56238281 181.22769531 -17.56238281 181.22769531 -17.1796875 179.9296875 C-15.83989427 176.23050997 -14.09834077 172.97013613 -12.0625 169.625 C-11.72347656 169.03203125 -11.38445312 168.4390625 -11.03515625 167.828125 C-10.0078125 166.1328125 -10.0078125 166.1328125 -7.9375 163.5 C-3.54155194 163.5 -2.30306338 164.21648628 1.3125 166.5 C2.20453125 167.056875 3.0965625 167.61375 4.015625 168.1875 C4.69109375 168.620625 5.3665625 169.05375 6.0625 169.5 C4.05426436 175.28233367 0.67683867 180.31974741 -2.48046875 185.52539062 C-2.92261719 186.26337891 -3.36476563 187.00136719 -3.8203125 187.76171875 C-4.22652832 188.43162842 -4.63274414 189.10153809 -5.05126953 189.79174805 C-6.09100324 191.4751423 -6.09100324 191.4751423 -5.9375 193.5 C-4.62280915 194.79812571 -4.62280915 194.79812571 -2.8515625 196.08203125 C-2.17697998 196.59548096 -1.50239746 197.10893066 -0.80737305 197.63793945 C0.30383911 198.46684692 0.30383911 198.46684692 1.4375 199.3125 C2.19828857 199.88637451 2.95907715 200.46024902 3.74291992 201.05151367 C15.22561088 209.67674997 26.73704082 218.28034133 38.97265625 225.81640625 C41.0625 227.5 41.0625 227.5 42.0859375 229.38671875 C42.05038433 232.59242933 40.5209742 234.2220344 38.625 236.75 C37.96628906 237.64203125 37.30757812 238.5340625 36.62890625 239.453125 C36.11199219 240.12859375 35.59507813 240.8040625 35.0625 241.5 C31.6807227 240.24498733 28.80976123 238.8197443 25.83984375 236.77734375 C25.06020264 236.24351074 24.28056152 235.70967773 23.47729492 235.15966797 C22.6597876 234.59135254 21.84228027 234.02303711 21 233.4375 C20.15091064 232.8511377 19.30182129 232.26477539 18.42700195 231.66064453 C11.84762249 227.09505441 5.39392304 222.40534947 -0.9375 217.5 C-1.47648926 217.08572754 -2.01547852 216.67145508 -2.57080078 216.24462891 C-22.66753019 200.78428537 -42.62069902 183.98602578 -58.9375 164.5 C-59.36546875 163.99645996 -59.7934375 163.49291992 -60.234375 162.97412109 C-76.58999944 143.63606651 -91.2087285 121.24153572 -91.46875 95.109375 C-90.04992283 85.46969626 -85.36467076 77.1513911 -80.5625 68.8125 C-79.95253174 67.73887207 -79.34256348 66.66524414 -78.71411133 65.55908203 C-76.79982437 62.19945323 -74.87132602 58.84841561 -72.9375 55.5 C-72.31891113 54.42766113 -71.70032227 53.35532227 -71.06298828 52.25048828 C-67.56260166 46.19423432 -64.03014664 40.15777824 -60.47705078 34.13232422 C-59.07590219 31.73664008 -57.7022614 29.32800558 -56.33984375 26.91015625 C-49.49464821 14.87313877 -41.91439806 7.60845423 -28.46069336 3.41674805 C-18.86084128 0.78015636 -9.9846244 -0.15747825 0 0 Z " fill="#000000" transform="translate(90.9375,52.5)"/>
<path d="M0 0 C4.24171951 4.37025647 5.83587527 8.29219086 6.3125 14.25 C5.33824619 29.35093401 -4.36914372 41.00842731 -14.45703125 51.50390625 C-16.94958196 54.06293007 -16.94958196 54.06293007 -19.0390625 56.765625 C-20.7498403 58.89177684 -22.41853035 60.56370585 -24.5 62.3125 C-27.76184981 65.09378262 -30.92240805 67.95688804 -34.0625 70.875 C-50.59429626 85.91214071 -69.17345504 99.03936606 -87.9375 111.125 C-88.63214355 111.57520508 -89.32678711 112.02541016 -90.04248047 112.48925781 C-111.97454243 126.67001491 -134.59854843 139.41095806 -157.9375 151.125 C-158.98550781 151.65367676 -160.03351563 152.18235352 -161.11328125 152.72705078 C-247.10865205 195.87347032 -247.10865205 195.87347032 -282.25 184.5625 C-287.00009402 182.49402982 -290.24866009 179.54824428 -292.9375 175.125 C-295.36564796 167.84055611 -294.37713222 160.53942347 -291.25 153.64453125 C-264.10130058 101.52872433 -197.71121044 65.87963137 -147.9375 39.125 C-146.61057129 38.40328613 -146.61057129 38.40328613 -145.25683594 37.66699219 C-113.47631085 20.43580212 -79.34073983 5.03791549 -43.9375 -2.875 C-42.8959375 -3.11863281 -41.854375 -3.36226562 -40.78125 -3.61328125 C-27.85663955 -6.22305836 -11.48377938 -7.33007194 0 0 Z M-225.9375 107.125 C-226.9289502 107.90665527 -226.9289502 107.90665527 -227.94042969 108.70410156 C-236.94650902 115.82705319 -245.63184326 123.19452513 -253.9375 131.125 C-254.46972168 131.62467285 -255.00194336 132.1243457 -255.55029297 132.63916016 C-271.53156372 147.20891783 -271.53156372 147.20891783 -279.0625 166.4375 C-279.02125 167.324375 -278.98 168.21125 -278.9375 169.125 C-270.34481525 174.54165444 -256.13520739 171.10989299 -246.875 169.125 C-216.37136587 162.1552743 -187.82172095 149.02860261 -159.9375 135.125 C-158.98311035 134.64981934 -158.0287207 134.17463867 -157.04541016 133.68505859 C-134.89860677 122.57927296 -113.51718107 109.91534427 -92.9375 96.125 C-92.30440918 95.70508789 -91.67131836 95.28517578 -91.01904297 94.85253906 C-73.82031612 83.42154521 -57.34691967 70.87546457 -41.9375 57.125 C-41.41897461 56.66818848 -40.90044922 56.21137695 -40.36621094 55.74072266 C-30.43947943 46.98421559 -21.13738272 37.89532741 -13.8125 26.8125 C-13.43391846 26.25006592 -13.05533691 25.68763184 -12.6652832 25.1081543 C-10.17138485 21.16078899 -9.32445103 17.75082373 -8.9375 13.125 C-13.07446578 10.1141195 -16.57823139 9.61254859 -21.5625 9.6875 C-22.68555542 9.70321045 -22.68555542 9.70321045 -23.83129883 9.71923828 C-93.39284664 11.89957948 -172.98989394 65.08431225 -225.9375 107.125 Z " fill="#000000" transform="translate(433.9375,182.875)"/>
<path d="M0 0 C0.84433594 0.49177734 1.68867188 0.98355469 2.55859375 1.49023438 C16.33510935 9.53907227 29.69411933 18.19943113 43 27 C41.64064771 30.54201041 40.21260125 33.31427231 37.875 36.3125 C37.33617187 37.00988281 36.79734375 37.70726562 36.2421875 38.42578125 C35.83226562 38.94527344 35.42234375 39.46476562 35 40 C30.82856059 38.53269811 27.56227069 36.45626199 23.9375 33.9375 C-24.35359387 1.15685592 -95.42698726 -45.50663752 -156 -40 C-158.40526968 -39.11146476 -158.40526968 -39.11146476 -160 -38 C-158.46486951 -26.18466979 -150.94183147 -18.32303938 -143 -10 C-141.82543367 -8.63174197 -140.65791363 -7.25737916 -139.5 -5.875 C-135.38174905 -1.1533774 -130.72954577 2.90417334 -126 7 C-125.05511719 7.83273438 -124.11023438 8.66546875 -123.13671875 9.5234375 C-113.86470794 17.60680594 -103.97425071 24.81435965 -94 32 C-92.90848633 32.79156494 -92.90848633 32.79156494 -91.79492188 33.59912109 C-73.53526251 46.82351561 -54.18564167 59.90717917 -34 70 C-34.58107632 73.7602985 -35.65199496 76.53035032 -37.5625 79.8125 C-38.01753906 80.60269531 -38.47257813 81.39289063 -38.94140625 82.20703125 C-39.29074219 82.79871094 -39.64007813 83.39039063 -40 84 C-44.0694192 82.75547249 -47.56129762 81.26809104 -51.2109375 79.0859375 C-52.19666748 78.49772217 -53.18239746 77.90950684 -54.19799805 77.3034668 C-55.24640869 76.66707275 -56.29481934 76.03067871 -57.375 75.375 C-58.47046143 74.71346924 -59.56592285 74.05193848 -60.69458008 73.37036133 C-72.36257475 66.26400053 -83.73605367 58.7297341 -95 51 C-95.69657715 50.52224121 -96.3931543 50.04448242 -97.11083984 49.55224609 C-110.25664518 40.47824152 -123.21801989 30.79983068 -134.9296875 19.921875 C-136.82771064 18.15993654 -138.77249778 16.48386171 -140.75 14.8125 C-155.54213443 1.84692468 -173.37533247 -14.38534761 -176.0625 -34.875 C-176.30961492 -41.17185428 -174.78322459 -44.8794086 -170.6875 -49.75 C-132.64521882 -81.59935169 -32.93225083 -19.27918955 0 0 Z " fill="#000000" transform="translate(248,141)"/>
<path d="M0 0 C4.95 0 9.9 0 15 0 C15 5.94 15 11.88 15 18 C20.94 18 26.88 18 33 18 C33 22.95 33 27.9 33 33 C27.06 33 21.12 33 15 33 C15 38.94 15 44.88 15 51 C10.05 51 5.1 51 0 51 C0 45.06 0 39.12 0 33 C-5.94 33 -11.88 33 -18 33 C-18 28.05 -18 23.1 -18 18 C-12.06 18 -6.12 18 0 18 C0 12.06 0 6.12 0 0 Z " fill="#000000" transform="translate(40,297)"/>
<path d="M0 0 C4.95 0 9.9 0 15 0 C15 5.94 15 11.88 15 18 C20.94 18 26.88 18 33 18 C33 22.95 33 27.9 33 33 C27.06 33 21.12 33 15 33 C15 38.94 15 44.88 15 51 C10.05 51 5.1 51 0 51 C0 45.06 0 39.12 0 33 C-5.94 33 -11.88 33 -18 33 C-18 28.05 -18 23.1 -18 18 C-12.06 18 -6.12 18 0 18 C0 12.06 0 6.12 0 0 Z " fill="#000000" transform="translate(352,86)"/>
</svg>
