<?xml version="1.0" encoding="UTF-8"?>
<svg version="1.1" xmlns="http://www.w3.org/2000/svg" width="128" height="128">
<path d="M0 0 C3.36213052 2.04633875 6.61321972 4.22161185 9.87890625 6.41796875 C12.77459994 8.17376047 12.77459994 8.17376047 15.40625 8.03125 C19.91745803 6.23763717 23.94884323 3.58442333 28.02929688 0.97460938 C33.21128347 -2.13458258 33.21128347 -2.13458258 36.953125 -1.49609375 C37.95859375 -1.00238281 38.9640625 -0.50867188 40 0 C40.67361572 0.24177979 41.34723145 0.48355957 42.04125977 0.73266602 C47.61593783 2.75010457 53.35276292 5.16399953 57 10 C58.11372773 15.0460576 57.55228671 20.09713953 57.2434082 25.2175293 C57.03022472 31.08209965 57.03022472 31.08209965 59.72314453 36.05810547 C64.14216863 39.37405214 69.0566838 41.52415352 74.25 43.34936523 C76 44 76 44 77 45 C78.37029981 53.37104808 79.23136188 62.74771575 77 71 C72.8683396 76.52117714 66.32315095 78.8108184 60 81 C59.01 81.495 59.01 81.495 58 82 C58.07968018 82.66418945 58.15936035 83.32837891 58.24145508 84.01269531 C58.96901659 91.37901606 59.56668453 98.94161753 57 106 C51.84241977 112.01634237 43.6539489 116.13685247 36 118 C29.95977498 117.1402072 25.10594129 112.93462011 20.12109375 109.58203125 C17.22540006 107.82623953 17.22540006 107.82623953 14.59375 107.96875 C10.08254197 109.76236283 6.05115677 112.41557667 1.97070312 115.02539062 C-3.21128347 118.13458258 -3.21128347 118.13458258 -6.953125 117.49609375 C-7.95859375 117.00238281 -8.9640625 116.50867188 -10 116 C-10.67361572 115.75822021 -11.34723145 115.51644043 -12.04125977 115.26733398 C-17.61593783 113.24989543 -23.35276292 110.83600047 -27 106 C-28.11372773 100.9539424 -27.55228671 95.90286047 -27.2434082 90.7824707 C-27.03022472 84.91790035 -27.03022472 84.91790035 -29.72314453 79.94189453 C-34.14216863 76.62594786 -39.0566838 74.47584648 -44.25 72.65063477 C-46 72 -46 72 -47 71 C-48.37029981 62.62895192 -49.23136188 53.25228425 -47 45 C-42.8683396 39.47882286 -36.32315095 37.1891816 -30 35 C-29.01 34.505 -29.01 34.505 -28 34 C-28.07968018 33.33581055 -28.15936035 32.67162109 -28.24145508 31.98730469 C-28.96901659 24.62098394 -29.56668453 17.05838247 -27 10 C-21.228789 3.26785435 -8.64183527 -4.85177323 0 0 Z M-21.28173828 10.01611328 C-25.24713386 14.59451687 -25.08764812 20.21688931 -24.90942383 26.00317383 C-24.34750766 30.84757855 -23.51338709 34.1579761 -19.734375 37.390625 C-15.03259416 40.54978182 -9.61128351 43.06748901 -4 44 C2.20545577 42.5975309 9.05094971 39.02136471 13 34 C15.1170151 26.91134622 14.04618714 19.21632434 13 12 C10.02273264 10.32992313 7.0428803 8.66451428 4.0625 7 C3.21236328 6.52304688 2.36222656 6.04609375 1.48632812 5.5546875 C0.67744141 5.10351562 -0.13144531 4.65234375 -0.96484375 4.1875 C-1.7137085 3.76855469 -2.46257324 3.34960938 -3.23413086 2.91796875 C-8.49005816 0.18572948 -17.23946501 6.7896597 -21.28173828 10.01611328 Z M30.96484375 4.1875 C30.15595703 4.63867188 29.34707031 5.08984375 28.51367188 5.5546875 C27.66353516 6.03164062 26.81339844 6.50859375 25.9375 7 C25.08349609 7.47695312 24.22949219 7.95390625 23.34960938 8.4453125 C21.232012 9.6283278 19.11553669 10.81330479 17 12 C15.95253299 19.22515256 14.90599183 26.89743936 17 34 C20.94145154 39.15486517 27.68590062 42.68724147 34 44 C37.16974018 43.51980951 37.16974018 43.51980951 40 42 C41.13179687 41.61328125 42.26359375 41.2265625 43.4296875 40.828125 C47.27621252 39.06622465 50.5164032 37.46813791 53 34 C55.52815686 27.06472807 55.77701859 18.88281843 53 12 C48.63458859 6.92260633 42.24670222 4.12262158 36 2 C34.14228507 2 32.54697075 3.30239399 30.96484375 4.1875 Z M-29.87890625 39.15234375 C-30.63494141 39.59900391 -31.39097656 40.04566406 -32.16992188 40.50585938 C-32.95947266 40.97830078 -33.74902344 41.45074219 -34.5625 41.9375 C-35.35591797 42.40607422 -36.14933594 42.87464844 -36.96679688 43.35742188 C-40.6912762 45.39916648 -40.6912762 45.39916648 -44 48 C-45.63714648 59.71145815 -45.63714648 59.71145815 -42.30859375 70.484375 C-39.93227349 72.02175089 -37.64547359 73.0034449 -35 74 C-33.40837808 74.98675433 -31.82465908 75.98639592 -30.25 77 C-28.21669612 78.38385129 -28.21669612 78.38385129 -26 79 C-21.58103174 77.81861762 -17.62298693 75.16901195 -13.6875 72.875 C-13.04232422 72.50246094 -12.39714844 72.12992188 -11.73242188 71.74609375 C-10.15324055 70.83367787 -8.57638136 69.91724491 -7 69 C-5.95510139 61.79256359 -4.8600422 54.07458766 -7 47 C-11.15232383 41.86504628 -17.80400095 38.97168503 -24 37 C-26.55778705 37 -27.68334093 37.84965693 -29.87890625 39.15234375 Z M-1.2890625 45.02050781 C-5.24163812 49.59349342 -5.20025571 55.13646066 -5.0480957 60.92626953 C-4.43226835 66.08123379 -3.3365177 69.31661633 0.67578125 72.71875 C4.79606932 75.49429175 9.11474686 77.92778915 14 79 C16.67909966 78.61413664 16.67909966 78.61413664 19 77 C20.18286564 76.35023525 21.36652623 75.70191652 22.55078125 75.0546875 C23.80660235 74.33143975 25.06047984 73.60480784 26.3125 72.875 C26.95767578 72.50246094 27.60285156 72.12992188 28.26757812 71.74609375 C29.84675945 70.83367787 31.42361864 69.91724491 33 69 C34.04489861 61.79256359 35.1399578 54.07458766 33 47 C28.84767617 41.86504628 22.19599905 38.97168503 16 37 C9.94110847 37 3.27717443 41.33951776 -1.2890625 45.02050781 Z M38.7109375 45.02050781 C34.75875676 49.59303656 34.79760249 55.13676995 34.95410156 60.92626953 C35.57050627 66.06034124 36.66012213 69.31134597 40.640625 72.71875 C45.66639815 76.12544443 50.9242377 79.5183869 57.12890625 78.47265625 C60.45368701 76.76729251 63.66353267 74.94465249 66.8125 72.9375 C67.39708984 72.57333984 67.98167969 72.20917969 68.58398438 71.83398438 C71.44458636 70.11755544 71.44458636 70.11755544 74 68 C75.63714648 56.28854185 75.63714648 56.28854185 72.30859375 45.515625 C69.92891909 43.97607896 67.65379097 42.98717827 65 42 C63.34281201 41.06143828 61.69630816 40.10369353 60.0625 39.125 C52.63278334 34.95806896 44.86032382 40.06329025 38.7109375 45.02050781 Z M-9.66015625 73.93359375 C-10.7265332 74.5359082 -10.7265332 74.5359082 -11.81445312 75.15039062 C-12.55630859 75.57513672 -13.29816406 75.99988281 -14.0625 76.4375 C-14.80822266 76.85837891 -15.55394531 77.27925781 -16.32226562 77.71289062 C-19.87022275 79.56954619 -19.87022275 79.56954619 -23 82 C-24.38074156 89.11213822 -25.0139008 96.98240995 -23 104 C-19.51725157 109.13012134 -14.17479943 111.9916182 -8.30957031 113.69140625 C-1.86386395 114.55265074 3.03037308 110.66148439 8 107 C8.92554687 106.63390625 9.85109375 106.2678125 10.8046875 105.890625 C13.99912313 103.13954521 13.98838285 100.51561953 14.30322266 96.41845703 C14.82662096 87.6696909 14.82662096 87.6696909 11.34179688 79.98974609 C5.51235591 75.31330603 -2.56525351 69.90897934 -9.66015625 73.93359375 Z M20.64453125 78.27734375 C17.2290559 81.09455924 16.37369861 83.18650791 15.88671875 87.56640625 C15.75227072 93.08729069 16.20821898 98.53850232 17 104 C26.24666209 111.30754074 26.24666209 111.30754074 37.16210938 113.72070312 C41.69435376 111.98972932 45.27040566 109.03739816 49 106 C50.31962033 105.30658497 51.65066873 104.63366186 53 104 C55.04109909 91.5533309 55.04109909 91.5533309 51.59228516 80.09082031 C41.0673718 71.15798298 31.82846322 71.04075358 20.64453125 78.27734375 Z " fill="#09090b" transform="translate(49,6)"/>
</svg>
