<?xml version="1.0" encoding="UTF-8"?>
<svg version="1.1" xmlns="http://www.w3.org/2000/svg" width="512" height="512">
<path d="M0 0 C14.85 0 29.7 0 45 0 C45 5.28 45 10.56 45 16 C35.43 16 25.86 16 16 16 C15.79673707 22.85690784 15.64203495 29.68293952 15.60327148 36.53833008 C15.57639572 38.86139427 15.52297168 41.18432472 15.44116211 43.50610352 C14.705884 59.47620971 14.705884 59.47620971 22.22898865 72.92222595 C24.78947745 75.3199112 27.42043815 77.54566669 30.22167969 79.65661621 C32.56548653 81.42718145 34.71223835 83.38993663 36.875 85.375 C37.91453593 86.25253033 38.95541681 87.12848385 40 88 C40.33 88.33 40.66 88.66 41 89 C47.31858902 89.56304259 50.17614543 88.92034123 55.21484375 84.76171875 C57.52260122 82.80160217 59.74629171 80.7769359 61.9375 78.6875 C62.50781952 78.15198517 63.07813904 77.61647034 63.66574097 77.06472778 C72.1592337 68.82303309 75.68818376 61.58807087 76.09790039 49.72387695 C76.11778326 42.78210376 75.74734863 35.90205484 75 29 C89.68493321 27.07167544 89.68493321 27.07167544 94.99951172 30.16308594 C98.66761452 33.17479139 101.67443033 36.75528079 104.66601562 40.42333984 C106.3948048 42.4666269 108.31824997 44.16758347 110.375 45.875 C110.93882889 46.3746225 111.50265778 46.874245 112.08357239 47.38900757 C113.92497731 49.01786772 113.92497731 49.01786772 115.8757782 50.15005493 C118.31765402 51.91433962 119.54073687 53.33648643 121 56 C121.74894905 61.58190717 121.59647313 67.03786851 121.37760353 72.65599632 C121.22927663 76.59149823 121.17217778 80.52691387 121.10824871 84.46454525 C121.05578082 87.6148577 120.99172625 90.76480425 120.92700195 93.91488647 C120.23097126 130.63932745 120.83196428 162.43404812 138.25 195.65307617 C140 199 140 199 141 202 C141.33 189.79 141.66 177.58 142 165 C166.60042684 162.41048138 166.60042684 162.41048138 172.75 167.09472656 C177.35679155 172.32919346 180.70609325 178.26425414 183.72680664 184.52636719 C184.85744953 186.99943092 184.85744953 186.99943092 186.55828857 188.66723633 C188.59457952 191.96206042 188.39575777 195.04426611 188.34057617 198.79785156 C188.34101425 199.57872131 188.34145233 200.35959106 188.34190369 201.16412354 C188.33981708 203.73988018 188.3164925 206.31498235 188.29296875 208.890625 C188.28737233 210.67852421 188.28310245 212.46642803 188.28010559 214.2543335 C188.26866043 218.95622496 188.23919607 223.65783768 188.20599365 228.35961914 C188.1752857 233.15897857 188.1615987 237.95838311 188.14648438 242.7578125 C188.11432606 252.17199736 188.06313365 261.58597548 188 271 C199.02327088 271.10131518 210.04533362 271.14818423 221.06908894 271.12697029 C226.18894928 271.1187981 231.30737842 271.12885466 236.42700195 271.18164062 C241.37490648 271.23196762 246.3206655 271.23301268 251.26869774 271.20095444 C253.14921911 271.19722462 255.02986249 271.21077566 256.91012001 271.24249649 C269.72860126 271.52308313 269.72860126 271.52308313 280.39916992 265.20654297 C281.94747818 263.48412861 283.4816416 261.74887319 285 260 C286.80321617 258.46392625 288.63370225 256.95878162 290.5 255.5 C293.39675972 253.23298162 295.88933618 251.13140881 298.26220703 248.3137207 C304.40621515 241.31486656 304.40621515 241.31486656 309.0177002 240.75506592 C311.34618316 240.82858664 313.59087315 241.06662422 315.8984375 241.38671875 C335.11087224 244.21780616 335.11087224 244.21780616 352.89379883 238.01245117 C360.68547631 231.3633306 367.32776189 223.55162014 374.0198555 215.82754517 C393.50479238 193.40003525 393.50479238 193.40003525 406.94921875 192.015625 C416.73427602 191.46503386 426.48475301 192.77182792 436 195 C436 190.38 436 185.76 436 181 C421.15 181 406.3 181 391 181 C391 175.72 391 170.44 391 165 C405.85 165 420.7 165 436 165 C436 115.83 436 66.66 436 16 C321.49 16 206.98 16 89 16 C89 10.72 89 5.44 89 0 C208.79 0 328.58 0 452 0 C452 119.13 452 238.26 452 361 C302.84 361 153.68 361 0 361 C0 241.87 0 122.74 0 0 Z M91 51 C91.02784073 52.1936467 91.02784073 52.1936467 91.0562439 53.41140747 C91.21987233 60.9717956 91.314298 68.52860097 91.33421898 76.09062386 C91.34681334 79.97730447 91.38460178 83.8600845 91.48339844 87.74560547 C91.57807189 91.50766434 91.60208469 95.26458375 91.58046341 99.02770615 C91.58405788 100.45103072 91.61162545 101.87453601 91.66541672 103.2968483 C92.06698596 114.56629725 92.06698596 114.56629725 88.56812477 118.68591309 C86.74587551 120.38226565 84.87615766 121.99897886 82.97143555 123.60205078 C77.72057264 128.13804246 75.16562654 131.49642825 74.58616352 138.52903557 C74.50115185 142.38939535 74.55642389 146.22193782 74.73193169 150.07924652 C74.87443761 153.24618638 74.92635157 156.40415191 74.95729065 159.57403564 C75.03878277 166.302178 75.23110471 173.02469258 75.4375 179.75 C75.6726864 187.54135338 75.85998661 195.32891163 75.94044685 203.12351227 C75.99461984 206.21282296 76.12801298 209.29160157 76.26622009 212.37811279 C76.61444942 226.62899607 72.74698321 234.8528436 63.29107761 245.48088455 C60.86457445 248.33597118 60.87763168 250.33951635 60.88647461 254.00048828 C60.88655014 255.04141632 60.88662567 256.08234436 60.88670349 257.15481567 C60.89186478 258.28192963 60.89702606 259.40904358 60.90234375 260.5703125 C60.90446617 262.29735916 60.90446617 262.29735916 60.90663147 264.05929565 C60.91224284 267.74788986 60.9247973 271.43642405 60.9375 275.125 C60.94251353 277.62109288 60.94707669 280.1171867 60.95117188 282.61328125 C60.96221597 288.74221073 60.97948827 294.87109518 61 301 C55.72 301 50.44 301 45 301 C45 296.38 45 291.76 45 287 C35.43 287 25.86 287 16 287 C16 306.14 16 325.28 16 345 C25.57 345 35.14 345 45 345 C45 335.1 45 325.2 45 315 C50.28 315 55.56 315 61 315 C61 324.9 61 334.8 61 345 C105.22 345 149.44 345 195 345 C195 339.06 195 333.12 195 327 C190.72930307 322.53540726 190.72930307 322.53540726 187.23457336 320.36660767 C180.51176694 315.9139498 174.436225 310.45104183 172.31635284 302.4052887 C169.67553651 286.70828078 171.03021524 270.18271326 171.66699219 254.3572998 C172.04973777 244.53981136 172.27980651 234.72043467 172.43918419 224.89704514 C172.51758029 221.49863502 172.67149061 218.11001173 172.83442688 214.7147522 C173.25494434 202.01086584 171.84649107 193.66032179 163.68095398 183.64169312 C161.27114546 180.64906403 161.27114546 180.64906403 158 181 C158 200.8 158 220.6 158 241 C151.07 241 144.14 241 137 241 C136.67 239.02 136.34 237.04 136 235 C135.52014728 233.43356293 134.9949023 231.88028644 134.42456055 230.34448242 C133.94221199 229.03340767 133.94221199 229.03340767 133.45011902 227.69584656 C133.09919693 226.75852188 132.74827484 225.8211972 132.38671875 224.85546875 C132.01706497 223.85461746 131.64741119 222.85376617 131.26655579 221.82258606 C130.07853633 218.6090134 128.88330445 215.39818289 127.6875 212.1875 C126.92592115 210.133653 126.16484947 208.07961787 125.40429688 206.02539062 C125.02253799 204.99764023 124.64077911 203.96988983 124.24745178 202.91099548 C123.45192955 200.75440797 122.6656215 198.59440329 121.88768005 196.43141174 C119.93829905 191.04561773 117.92207338 185.74072229 115.57453537 180.51386833 C104.17565156 155.01468235 104.81088072 131.14482151 105.65673828 103.62103271 C105.83697054 97.59699656 105.96323157 91.5764575 106.0183239 85.54993629 C106.06514907 82.77375446 106.1891685 80.00844624 106.31752014 77.23503113 C106.61031535 67.45686191 106.61031535 67.45686191 102.06784058 59.11367798 C97.11002664 53.82878024 97.11002664 53.82878024 91 51 Z M74 87 C72.89063105 88.29384957 71.80891879 89.61142254 70.73828125 90.9375 C58.6502507 105.07027203 58.6502507 105.07027203 50.15625 106.44140625 C47.2097168 106.60742188 47.2097168 106.60742188 44.3125 106.5625 C42.93348511 106.54606445 42.93348511 106.54606445 41.52661133 106.52929688 C35.4893651 106.04671564 32.42477894 104.27617115 28.46362305 99.74438477 C27.98062744 99.16873779 27.49763184 98.59309082 27 98 C25.60021243 96.71059837 24.18731822 95.43492861 22.75 94.1875 C22.10546875 93.62417969 21.4609375 93.06085938 20.796875 92.48046875 C18.85907919 90.83312428 18.85907919 90.83312428 16 89 C16 149.06 16 209.12 16 271 C25.57 271 35.14 271 45 271 C44.9175 266.730625 44.835 262.46125 44.75 258.0625 C44.87476344 245.04022183 47.81246169 236.92313612 56.68725586 227.45678711 C59.26920347 224.59153114 60.25164239 222.75112878 60.18426514 218.97502136 C60.17519638 218.15812836 60.16612762 217.34123535 60.15678406 216.49958801 C60.13694962 215.60664536 60.11711517 214.7137027 60.09667969 213.79370117 C60.07088363 211.8375019 60.04532099 209.88129954 60.0199585 207.9250946 C60.00305717 206.88600134 59.98615585 205.84690807 59.96874237 204.77632713 C59.88879302 199.26065788 59.87341713 193.7446568 59.84765625 188.22851562 C59.8120905 181.21423518 59.75756555 174.20193415 59.62646484 167.1887207 C59.52215245 161.51755469 59.48733103 155.84955517 59.49741364 150.17748451 C59.48880617 148.02571363 59.45540203 145.87388147 59.39571381 143.72292137 C58.92185001 125.91905564 58.92185001 125.91905564 64.17080688 119.69238281 C66.58322273 117.20044032 69.14215336 115.03327875 71.85726929 112.88163757 C74.51922042 110.70753674 74.97792311 110.0661725 76.12905884 106.61579895 C76.37455082 103.50835741 76.2453283 100.71785177 75.875 97.625 C75.81183594 96.59117187 75.74867187 95.55734375 75.68359375 94.4921875 C75.52089179 91.98192862 75.2937342 89.49770907 75 87 C74.67 87 74.34 87 74 87 Z M391.48046875 220.80859375 C388.55067671 223.94532335 388.55067671 223.94532335 386.33056641 226.953125 C385.48666208 228.0303511 384.6396493 229.10514785 383.78985596 230.17773438 C383.36538429 230.71534393 382.94091263 231.25295349 382.50357819 231.80685425 C362.73811256 256.29663981 362.73811256 256.29663981 348.89808655 258.50489807 C342.04135054 259.06895073 335.48124332 258.73862595 328.67651367 257.78686523 C318.74727114 256.07944028 318.74727114 256.07944028 309.68505859 259.55444336 C306.35996698 262.26507017 303.3830107 265.25848699 300.48101807 268.4130249 C298.66461058 270.35938432 296.70199344 272.06247176 294.6484375 273.75390625 C294.08769531 274.23537109 293.52695312 274.71683594 292.94921875 275.21289062 C292.42972656 275.65826172 291.91023438 276.10363281 291.375 276.5625 C290.53775391 277.28276367 290.53775391 277.28276367 289.68359375 278.01757812 C288.12805615 279.35168037 286.5643114 280.67619643 285 282 C284.29853348 282.70151184 283.59706696 283.40302368 282.87434387 284.12579346 C278.87472271 286.73373338 275.6668697 286.57384737 270.98706055 286.54589844 C270.08900192 286.55623611 269.1909433 286.56657379 268.26567078 286.57722473 C265.30583711 286.60665436 262.34668723 286.60815195 259.38671875 286.609375 C257.33118892 286.62435652 255.27567113 286.64108361 253.22016907 286.65948486 C247.81643115 286.70317359 242.41285561 286.72316095 237.00897217 286.73822021 C231.49221183 286.75778571 225.97562701 286.7997564 220.45898438 286.83984375 C209.63937703 286.91516245 198.81980894 286.96544397 188 287 C187.31325004 293.77550151 187.31325004 293.77550151 190.00366211 299.7421875 C191.37663452 300.79792969 191.37663452 300.79792969 192.77734375 301.875 C194.25944336 303.13957031 194.25944336 303.13957031 195.77148438 304.4296875 C197.8447234 306.13770438 199.94587874 307.7617474 202.09179688 309.3828125 C205.08984375 312 205.08984375 312 210 319 C210.33 327.58 210.66 336.16 211 345 C285.25 345 359.5 345 436 345 C436 300.78 436 256.56 436 211 C404.66599827 207.4343489 404.66599827 207.4343489 391.48046875 220.80859375 Z " fill="#09090b" transform="translate(30,75)"/>
<path d="M0 0 C168.96 0 337.92 0 512 0 C512 109.23 512 218.46 512 331 C506.72 331 501.44 331 496 331 C496 227.05 496 123.1 496 16 C337.6 16 179.2 16 16 16 C16 144.7 16 273.4 16 406 C174.4 406 332.8 406 496 406 C496 396.1 496 386.2 496 376 C496.33 375.67 496.66 375.34 497 375 C501.95 375 506.9 375 512 375 C512 390.51 512 406.02 512 422 C343.04 422 174.08 422 0 422 C0 282.74 0 143.48 0 0 Z " fill="#09090b" transform="translate(0,45)"/>
<path d="M0 0 C19.05431795 -0.39455937 38.1074721 -0.69741571 57.16504097 -0.88080692 C66.01525573 -0.96824755 74.86287685 -1.0873057 83.71142578 -1.2824707 C91.42959678 -1.45262186 99.14588923 -1.56174895 106.86588371 -1.59950441 C110.94988475 -1.62155978 115.02851533 -1.67284772 119.11078262 -1.79741096 C145.89992925 -2.58377662 145.89992925 -2.58377662 153.04998779 3.71536255 C156.21513799 7.18337417 158.66587807 10.89072358 160.89275742 15.01420689 C162.36819283 17.66033839 164.21903967 19.89364457 166.1875 22.1875 C167.08855469 23.36300415 167.08855469 23.36300415 168.0078125 24.56225586 C170.0211081 27.11696496 170.0211081 27.11696496 172.6796875 29.62719727 C183.96118074 41.1866811 183.76241607 54.94958559 183.82778931 70.35235596 C183.57975504 89.38133974 179.60308144 103.80299996 166.08056641 117.51080322 C150.77779757 131.67210973 131.51515651 131.88615243 111.8125 131.625 C111.05467098 131.61577263 110.29684196 131.60654526 109.51604843 131.59703827 C104.38246752 131.51551873 99.2687857 131.28930473 94.14453125 130.9765625 C93.13869429 130.92849834 93.13869429 130.92849834 92.11253738 130.8794632 C81.73130439 130.32197784 81.73130439 130.32197784 77.67633057 127.22570801 C75.90347008 125.23075621 74.44407184 123.24028606 73 121 C72.0106978 119.70730721 71.01438262 118.41991781 70.0078125 117.140625 C69.04352235 115.84624092 68.08256547 114.54936677 67.125 113.25 C66.16936752 111.96346984 65.21363525 110.6770138 64.2578125 109.390625 C63.75983154 108.69743164 63.26185059 108.00423828 62.7487793 107.29003906 C60.97486739 104.89661753 60.97486739 104.89661753 58.66723633 102.45214844 C51.00567157 93.61980201 50.28834308 85.98139003 50.4375 74.75 C50.43652313 73.92706451 50.43554626 73.10412903 50.43453979 72.2562561 C50.49535032 62.97534726 50.81103965 55.21861226 57.40063477 48.09277344 C60.11782929 45.69808274 62.93261129 43.57652599 65.93408203 41.55224609 C68.88767209 39.33303957 71.12762066 36.66254244 73.47241211 33.82543945 C73.97651611 33.22304443 74.48062012 32.62064941 75 32 C75.42900101 31.4769931 75.85800201 30.95398621 76.30000305 30.41513062 C78.52820834 28.56030286 79.84978257 28.59212161 82.72753906 28.5324707 C83.68573547 28.50687576 84.64393188 28.48128082 85.63116455 28.45491028 C87.18272247 28.44049141 87.18272247 28.44049141 88.765625 28.42578125 C90.36576447 28.40368843 90.36576447 28.40368843 91.99822998 28.38114929 C94.25769883 28.35718198 96.5172721 28.34177223 98.77685547 28.33422852 C102.22415345 28.3126617 105.66696599 28.23251621 109.11328125 28.15039062 C111.3098724 28.13439156 113.50649253 28.12190818 115.703125 28.11328125 C117.24253754 28.06546257 117.24253754 28.06546257 118.81304932 28.01667786 C125.85065592 28.08249252 125.85065592 28.08249252 129.14608765 30.7131958 C130.92485849 32.73147536 132.46664969 34.7920334 134 37 C135.03086563 38.22236953 136.07318394 39.43529068 137.1328125 40.6328125 C138.13063623 41.79650823 139.12803632 42.96056736 140.125 44.125 C140.87330078 44.99705078 140.87330078 44.99705078 141.63671875 45.88671875 C143.09466463 47.58829005 144.55166671 49.29023143 146 51 C146.87406494 51.89396484 147.74812988 52.78792969 148.64868164 53.70898438 C151.55230522 57.21625709 151.64890735 60.60634632 151.48828125 65.0234375 C151.48324585 65.68577393 151.47821045 66.34811035 151.47302246 67.03051758 C151.4470749 69.47912557 151.37726806 71.92711122 151.3125 74.375 C151.1578125 82.604375 151.1578125 82.604375 151 91 C130.87 91 110.74 91 90 91 C90 80.77 90 70.54 90 60 C95.28 60 100.56 60 106 60 C106 64.95 106 69.9 106 75 C115.57 75 125.14 75 135 75 C134.46246454 63.4418766 134.46246454 63.4418766 128.125 56 C127.04311678 54.93867513 125.96235499 53.87620569 124.8828125 52.8125 C124.40215332 52.36519531 123.92149414 51.91789062 123.42626953 51.45703125 C122 50 122 50 120.78320312 47.87060547 C118.55599969 45.53423736 116.85994721 45.44506703 113.7071228 45.29031372 C113.00713165 45.27958832 112.3071405 45.26886292 111.5859375 45.2578125 C110.85686188 45.23975555 110.12778625 45.22169861 109.37661743 45.20309448 C107.83181149 45.17408801 106.28675979 45.15631534 104.74169922 45.14892578 C102.40027077 45.12525547 100.06964437 45.02714058 97.73046875 44.92578125 C89.49837313 44.69840792 89.49837313 44.69840792 82.15332031 48.04199219 C79.88418345 50.58069134 77.96648549 53.22422711 76 56 C74.69201059 57.16132234 73.36398055 58.30069966 72.01171875 59.41015625 C68.40529105 62.98733982 67.9760653 66.36963863 67.77368164 71.33764648 C67.7864917 72.36059814 67.79930176 73.3835498 67.8125 74.4375 C67.82108032 76.02896851 67.82108032 76.02896851 67.82983398 77.65258789 C68.31523728 87.77397509 72.28616291 93.98392743 79.25653076 101.05187988 C81 103 81 103 82.45884705 105.25465393 C84.71538637 108.70315313 86.53938157 111.4398276 90.47340393 112.94859314 C93.42403795 113.42217571 96.26245579 113.61012408 99.25 113.6875 C100.87557076 113.76286484 100.87557076 113.76286484 102.53398132 113.8397522 C106.02511324 113.96231712 109.50682303 113.99358296 113 114 C114.76544662 114.02087677 114.76544662 114.02087677 116.56655884 114.04217529 C130.10930374 114.08046868 141.74451218 113.69668235 151.81835938 103.8515625 C165.73635967 88.73202481 165.63122781 74.00930002 164.81488037 54.22657776 C164.25152624 46.11943711 161.835888 40.75791518 155.85913086 35.15795898 C154.64117404 34.10337666 153.390258 33.08575739 152.11061096 32.10694885 C150 30 150 30 148.52905273 26.85876465 C146.27979959 22.51362345 144.29451308 19.47027919 140 17 C130.58493561 14.59245444 120.37709154 15.31340597 110.71598768 15.47994971 C106.81888401 15.53337131 102.92215988 15.51272784 99.02481079 15.50019836 C91.65779287 15.48763652 84.29280821 15.54094055 76.92624629 15.61836988 C68.53438459 15.70333504 60.14292766 15.71417902 51.7506969 15.71903551 C34.49956518 15.73066681 17.25034459 15.83723251 0 16 C0 10.72 0 5.44 0 0 Z " fill="#09090b" transform="translate(165,135)"/>
<path d="M0 0 C2.07868943 0.04519242 4.15747315 0.08624864 6.23632812 0.12304688 C11.30572955 0.22174465 16.37057132 0.37676447 21.4375 0.5625 C21.4375 5.8425 21.4375 11.1225 21.4375 16.5625 C17.67472656 16.40974609 17.67472656 16.40974609 13.8359375 16.25390625 C-4.04946765 14.90995414 -4.04946765 14.90995414 -20.3984375 20.23046875 C-22.61258292 22.58633544 -24.47467849 25.04216821 -26.27124023 27.72607422 C-26.79872864 28.49338364 -27.32621704 29.26069305 -27.86968994 30.05125427 C-29.01780481 31.75445692 -30.13639433 33.47786661 -31.22747803 35.21815491 C-36.57260481 43.37990722 -43.17381247 51.60101964 -52.97437286 54.20278168 C-67.07161388 56.72592084 -81.81515301 55.61641914 -96.04284668 55.00445557 C-101.63299518 54.78727593 -107.22518381 54.69323367 -112.81835938 54.58789062 C-123.73838529 54.36452369 -134.64941252 54.00753104 -145.5625 53.5625 C-145.5625 48.2825 -145.5625 43.0025 -145.5625 37.5625 C-141.71307739 37.66630981 -141.71307739 37.66630981 -137.78588867 37.7722168 C-129.23296746 37.98860754 -120.68098845 38.09747217 -112.12560558 38.15577984 C-106.94567971 38.19429241 -101.77133101 38.26709428 -96.59350586 38.4230957 C-70.6262242 40.30985009 -70.6262242 40.30985009 -48.02546692 30.03730774 C-45.11526712 26.84151001 -42.55501711 23.56713622 -40.17948914 19.95732117 C-38.06683639 16.82840372 -35.60870591 14.10817034 -33.08387756 11.30982971 C-31.4183336 9.46647665 -31.4183336 9.46647665 -29.70336914 6.83227539 C-22.54331819 -2.75881877 -10.72606716 -0.40493344 0 0 Z " fill="#09090b" transform="translate(385.5625,239.4375)"/>
<path d="M0 0 C1.63131133 0.06033484 3.26284011 0.11506277 4.89453125 0.1640625 C8.8562457 0.28472385 12.78717795 0.51890671 16.75 0.75 C16.75 5.7 16.75 10.65 16.75 15.75 C21.7 15.75 26.65 15.75 31.75 15.75 C32.05216362 20.3650973 32.30894737 24.94505378 32.46411133 29.56225586 C32.52878896 31.12366703 32.61699054 32.68431308 32.73071289 34.24291992 C33.3028728 42.29717089 33.20519603 49.01447409 28.00117493 55.55653381 C22.62159696 61.2887897 17.49007289 63.84110635 9.6328125 64.265625 C7.19459841 64.28997293 4.78113012 64.23360971 2.34570312 64.11523438 C-0.14662958 63.99899119 -2.62244915 63.9921703 -5.1171875 64 C-18.18705124 63.8330462 -18.18705124 63.8330462 -22.5703125 59.546875 C-23.50189398 58.30920747 -24.39065208 57.0388701 -25.25 55.75 C-26.11149658 54.85200684 -26.97299316 53.95401367 -27.8605957 53.02880859 C-30.80537521 49.50867861 -31.08874796 45.96020204 -31.16015625 41.4921875 C-31.1815416 40.70788361 -31.20292694 39.92357971 -31.22496033 39.11550903 C-31.25890787 37.46003999 -31.27912315 35.80423868 -31.28637695 34.1484375 C-31.31226481 31.64771877 -31.42858406 29.16178105 -31.54882812 26.6640625 C-31.75361155 18.44401294 -31.13002311 11.82892498 -25.32421875 5.6171875 C-17.93432031 -1.27997524 -9.51018294 -0.61756957 0 0 Z M-12.9074707 17.94433594 C-14.70686368 20.36446877 -14.63743836 21.93527999 -14.6484375 24.93359375 C-14.65230469 25.94357422 -14.65617187 26.95355469 -14.66015625 27.99414062 C-14.64855469 29.04794922 -14.63695312 30.10175781 -14.625 31.1875 C-14.63660156 32.23744141 -14.64820313 33.28738281 -14.66015625 34.36914062 C-14.65628906 35.38041016 -14.65242188 36.39167969 -14.6484375 37.43359375 C-14.64505371 38.35712646 -14.64166992 39.28065918 -14.63818359 40.23217773 C-14.16816213 43.2808138 -13.49145926 44.63081874 -11.25 46.75 C-8.81357935 47.36425025 -8.81357935 47.36425025 -6.06640625 47.28125 C-5.05642578 47.28640625 -4.04644531 47.2915625 -3.00585938 47.296875 C-1.95205078 47.28140625 -0.89824219 47.2659375 0.1875 47.25 C1.76241211 47.27320313 1.76241211 47.27320313 3.36914062 47.296875 C4.88604492 47.28914063 4.88604492 47.28914063 6.43359375 47.28125 C7.81889282 47.27448242 7.81889282 47.27448242 9.23217773 47.26757812 C12.49930475 46.59596858 13.70619076 45.33668224 15.75 42.75 C16.23117013 39.93525393 16.23117013 39.93525393 16 37 C15.87625 34.40125 15.87625 34.40125 15.75 31.75 C10.8 31.75 5.85 31.75 0.75 31.75 C0.75 26.8 0.75 21.85 0.75 16.75 C-1.168125 16.688125 -3.08625 16.62625 -5.0625 16.5625 C-6.14144531 16.52769531 -7.22039062 16.49289063 -8.33203125 16.45703125 C-11.19224086 16.49827165 -11.19224086 16.49827165 -12.9074707 17.94433594 Z " fill="#09090b" transform="translate(405.25,118.25)"/>
<path d="M0 0 C5.61 0 11.22 0 17 0 C17 5.28 17 10.56 17 16 C11.39 16 5.78 16 0 16 C0 10.72 0 5.44 0 0 Z " fill="#09090b" transform="translate(254,315)"/>
<path d="M0 0 C5.28 0 10.56 0 16 0 C16 5.28 16 10.56 16 16 C10.72 16 5.44 16 0 16 C0 10.72 0 5.44 0 0 Z " fill="#09090b" transform="translate(496,390)"/>
<path d="M0 0 C5.28 0 10.56 0 16 0 C16 5.28 16 10.56 16 16 C10.72 16 5.44 16 0 16 C0 10.72 0 5.44 0 0 Z " fill="#09090b" transform="translate(60,225)"/>
<path d="M0 0 C5.28 0 10.56 0 16 0 C16 5.28 16 10.56 16 16 C10.72 16 5.44 16 0 16 C0 10.72 0 5.44 0 0 Z " fill="#09090b" transform="translate(435,195)"/>
<path d="M0 0 C5.28 0 10.56 0 16 0 C16 5.28 16 10.56 16 16 C10.72 16 5.44 16 0 16 C0 10.72 0 5.44 0 0 Z " fill="#09090b" transform="translate(180,180)"/>
<path d="M0 0 C5.28 0 10.56 0 16 0 C16 5.28 16 10.56 16 16 C10.72 16 5.44 16 0 16 C0 10.72 0 5.44 0 0 Z " fill="#09090b" transform="translate(346,104)"/>
<path d="M0 0 C5.28 0 10.56 0 16 0 C16 5.28 16 10.56 16 16 C10.72 16 5.44 16 0 16 C0 10.72 0 5.44 0 0 Z " fill="#09090b" transform="translate(89,75)"/>
</svg>
